<?xml version="1.0" encoding="UTF-8"?><svg id="Layer_1" xmlns="http://www.w3.org/2000/svg" viewBox="0 0 1757.78 408.18"><defs><style>.cls-1{stroke-width:0px;}</style></defs><path class="cls-1" d="m192.99,408.18H0V0h110.24v310.1h82.75v98.08Z"/><path class="cls-1" d="m336.01,408.18h-110.24V0h110.24v408.18Z"/><path class="cls-1" d="m393.12,408.18V0h128.22c47.94,0,83.45,10.57,106.54,31.72,23.44,21.68,35.16,49.7,35.16,84.07,0,51.11-25.38,78.78-76.14,83.01,28.9,4.23,50.1,13.75,63.58,28.55,13.48,14.8,20.22,36.13,20.22,63.98,0,35.07-11.37,63.27-34.1,84.6-22.56,21.5-52.26,32.25-89.09,32.25h-154.39Zm110.24-249.56h7.4c13.22,0,23.66-3.08,31.33-9.25,7.67-6.17,11.5-14.8,11.5-25.91,0-23.62-12.95-35.43-38.86-35.43-1.24,0-2.78.05-4.63.13-1.85.09-4.1.22-6.74.4v70.06Zm0,161c2.12.18,3.97.31,5.55.4,1.59.09,2.91.13,3.97.13,13.75,0,24.72-3.61,32.91-10.84,8.2-7.22,12.29-16.92,12.29-29.08s-4.1-21.68-12.29-28.55c-8.2-6.87-19.43-10.31-33.71-10.31h-8.72v78.25Z"/><path class="cls-1" d="m717.76,408.18V0h204.89v95.97h-94.64v59.48h84.86v92.26h-84.86v62.39h94.64v98.08h-204.89Z"/><path class="cls-1" d="m969.7,408.18V0h204.89v95.97h-94.64v59.48h84.86v92.26h-84.86v62.39h94.64v98.08h-204.89Z"/><path class="cls-1" d="m1511.92,408.18h-119.23l-54.46-145.4c-.53-2.47-1.46-5.73-2.78-9.78-1.32-4.05-2.95-8.9-4.89-14.54l.79,26.97v142.76h-109.71V0h112.89c49.7,0,86.88,9.78,111.56,29.34,31.37,25.03,47.06,60.63,47.06,106.8,0,49.35-21.06,83.45-63.19,102.31l81.96,169.72Zm-180.04-219.16h7.4c12.69,0,23.26-4.85,31.72-14.54,8.46-9.69,12.69-22.03,12.69-37.01,0-30.49-15.95-45.74-47.85-45.74h-3.96v97.29Z"/><path class="cls-1" d="m1694.6,408.18h-110.24V97.82h-60.8V0h234.23v97.82h-63.18v310.37Z"/></svg>